<svg width="286" height="193" viewBox="0 0 286 193" fill="none" xmlns="http://www.w3.org/2000/svg">
<path d="M143 123C221.977 123 286 138.67 286 158C286 177.33 221.977 193 143 193C64.0233 193 0 177.33 0 158C0 138.67 64.0233 123 143 123ZM142.5 142C106.878 142 78 149.163 78 158C78 166.837 106.878 174 142.5 174C178.122 174 207 166.837 207 158C207 149.163 178.122 142 142.5 142Z" fill="white"/>
<path d="M142.612 0H142.387C115.155 0 93 22.1909 93 49.4667C93 67.346 101.126 90.9422 117.154 119.601C129.036 140.848 141.085 157.121 141.206 157.283C141.541 157.734 142.07 158 142.63 158C142.646 158 142.662 158 142.678 157.999C143.256 157.983 143.789 157.687 144.11 157.204C144.229 157.024 156.192 138.923 167.994 116.783C183.923 86.8999 192 64.251 192 49.4667C191.999 22.1905 169.844 0 142.612 0ZM165.409 50.6755C165.409 63.3329 155.132 73.6298 142.499 73.6298C129.867 73.6298 119.59 63.3326 119.59 50.6755C119.59 38.0185 129.867 27.7213 142.499 27.7213C155.132 27.7213 165.409 38.0185 165.409 50.6755Z" fill="#D6DDFF"/>
</svg>
