<svg width="979" height="860" viewBox="0 0 979 860" fill="none" xmlns="http://www.w3.org/2000/svg">
<path d="M489.5 0C759.843 0 979 219.157 979 489.5C979 636.355 914.329 768.105 811.914 857.826L777.738 794.291C858.569 717.824 909 609.552 909 489.5C909 257.817 721.183 70 489.5 70C257.817 70 70 257.817 70 489.5C70 610.187 120.966 718.97 202.547 795.503L168.472 859.035C65.2549 769.29 0 637.016 0 489.5C0 219.157 219.157 0 489.5 0Z" fill="url(#paint0_linear_35_27)"/>
<path d="M201.45 741.8C202.55 743.5 203.433 745.45 204.1 747.65C204.767 749.817 205.1 752.033 205.1 754.3C205.1 757 204.633 759.567 203.7 762C202.8 764.433 201.433 766.417 199.6 767.95C197.8 769.483 195.6 770.25 193 770.25C190.567 770.25 188.333 769.633 186.3 768.4C184.267 767.133 182.733 765.667 181.7 764C180.933 762.767 180.35 761.383 179.95 759.85C179.55 758.283 179.35 756.717 179.35 755.15C179.35 752.417 179.917 749.75 181.05 747.15C182.217 744.55 183.817 742.467 185.85 740.9C187.783 739.467 190 738.75 192.5 738.75C195.267 738.75 198.25 739.767 201.45 741.8ZM188.05 745.25C187.75 745.75 187.45 746.2 187.15 746.6C186.417 747.7 185.883 748.633 185.55 749.4C185.217 750.133 184.917 751.267 184.65 752.8C184.517 753.5 184.45 754.317 184.45 755.25C184.45 757.617 184.917 759.667 185.85 761.4C186.817 763.1 188.133 764.25 189.8 764.85C190.6 765.15 191.5 765.3 192.5 765.3C195 765.3 196.883 764.2 198.15 762C199.45 759.767 200.1 757.017 200.1 753.75C200.1 750.717 199.533 748.233 198.4 746.3C197.267 744.333 195.517 743.35 193.15 743.35C192.183 743.35 191.35 743.5 190.65 743.8C189.983 744.1 189.117 744.583 188.05 745.25Z" fill="white"/>
<path d="M95.5 552.8C95.2667 553.733 95.1167 554.967 95.05 556.5C94.9833 557.833 94.8833 558.833 94.75 559.5C95.7167 559.1 96.6333 558.85 97.5 558.75C98.3667 558.617 99.4667 558.55 100.8 558.55C102.867 558.55 104.667 559.033 106.2 560C107.733 560.933 108.9 562.2 109.7 563.8C110.5 565.367 110.9 567.05 110.9 568.85C110.9 569.55 110.667 570.5 110.2 571.7C109.733 572.867 109.25 573.767 108.75 574.4C107.583 575.933 106.233 577.117 104.7 577.95C103.167 578.75 101.5 579.15 99.7 579.15C98.3333 579.15 97.0833 578.967 95.95 578.6C94.85 578.2 93.6667 577.667 92.4 577C91.1 576.3 90.15 575.583 89.55 574.85C88.9833 574.083 88.7 573.133 88.7 572C88.7 571.4 88.95 570.917 89.45 570.55C89.9833 570.15 90.4833 569.95 90.95 569.95C91.25 569.95 91.5167 570.033 91.75 570.2C91.9833 570.367 92.3667 570.7 92.9 571.2L94.15 572.4C94.95 573.067 95.7333 573.567 96.5 573.9C97.3 574.233 98.2667 574.4 99.4 574.4C100.433 574.4 101.267 574.267 101.9 574C103.167 573.5 104.15 572.85 104.85 572.05C105.583 571.25 105.95 569.967 105.95 568.2C105.95 566.5 105.383 565.183 104.25 564.25C103.117 563.283 101.2 562.8 98.5 562.8C98.1333 562.8 97.6 562.9 96.9 563.1C96.2 563.3 95.5167 563.517 94.85 563.75C93.25 564.283 92.2667 564.55 91.9 564.55C91.4333 564.55 90.9667 564.35 90.5 563.95C90.0333 563.55 89.8 563.017 89.8 562.35C90.4 558.317 90.7 554.967 90.7 552.3L90.65 551.05C90.5833 550.45 90.55 549.95 90.55 549.55C90.55 548.95 90.8667 548.5 91.5 548.2C92.1667 547.867 92.85 547.7 93.55 547.7C94.15 547.7 95.45 547.8 97.45 548L99.85 548.2C100.15 548.233 100.6 548.25 101.2 548.25L103.05 548.2C103.417 548.167 103.95 548.15 104.65 548.15C105.65 548.15 106.483 548.3 107.15 548.6C107.817 548.9 108.15 549.383 108.15 550.05C108.15 551.083 107.983 551.833 107.65 552.3C107.317 552.767 106.933 553 106.5 553C106.1 553 105.433 552.933 104.5 552.8C103.267 552.667 101.817 552.6 100.15 552.6C98.9833 552.6 97.4333 552.667 95.5 552.8Z" fill="white"/>
<path d="M128.65 317.7C128.317 324.233 128.15 329.433 128.15 333.3C128.15 335.3 128.2 337.2 128.3 339C128.567 339.2 129.083 339.3 129.85 339.3L131 339.25C131.467 339.183 131.9 339.15 132.3 339.15C133.167 339.15 133.833 339.3 134.3 339.6C134.8 339.9 135.05 340.483 135.05 341.35C135.05 342.183 134.8 342.833 134.3 343.3C133.833 343.767 132.85 344 131.35 344C130.083 344 128.55 343.9 126.75 343.7C126.317 343.667 125.9 343.633 125.5 343.6C125.1 343.567 124.733 343.55 124.4 343.55C122.567 343.583 121.2 343.65 120.3 343.75C119.4 343.85 118.383 343.9 117.25 343.9C116.217 343.9 115.7 343.117 115.7 341.55C115.7 340.05 116.667 339.3 118.6 339.3C118.9 339.3 119.383 339.333 120.05 339.4C120.617 339.5 121.217 339.55 121.85 339.55C122.217 339.55 122.517 339.533 122.75 339.5C122.783 337.267 122.9 334.017 123.1 329.75C123.3 324.75 123.4 321.05 123.4 318.65C123.233 318.683 122.65 318.917 121.65 319.35C120.117 320.117 118.983 320.5 118.25 320.5C117.85 320.5 117.483 320.3 117.15 319.9C116.817 319.467 116.65 318.967 116.65 318.4C116.65 317.833 117 317.283 117.7 316.75C118.4 316.217 119.533 315.517 121.1 314.65C121.967 314.217 122.8 313.733 123.6 313.2C123.8 313.067 124.083 312.933 124.45 312.8C124.85 312.667 125.15 312.6 125.35 312.6C126.217 312.6 127 312.783 127.7 313.15C128.433 313.483 128.8 313.933 128.8 314.5L128.65 317.7ZM160.643 315.8C161.743 317.5 162.627 319.45 163.293 321.65C163.96 323.817 164.293 326.033 164.293 328.3C164.293 331 163.827 333.567 162.893 336C161.993 338.433 160.627 340.417 158.793 341.95C156.993 343.483 154.793 344.25 152.193 344.25C149.76 344.25 147.527 343.633 145.493 342.4C143.46 341.133 141.927 339.667 140.893 338C140.127 336.767 139.543 335.383 139.143 333.85C138.743 332.283 138.543 330.717 138.543 329.15C138.543 326.417 139.11 323.75 140.243 321.15C141.41 318.55 143.01 316.467 145.043 314.9C146.977 313.467 149.193 312.75 151.693 312.75C154.46 312.75 157.443 313.767 160.643 315.8ZM147.243 319.25C146.943 319.75 146.643 320.2 146.343 320.6C145.61 321.7 145.077 322.633 144.743 323.4C144.41 324.133 144.11 325.267 143.843 326.8C143.71 327.5 143.643 328.317 143.643 329.25C143.643 331.617 144.11 333.667 145.043 335.4C146.01 337.1 147.327 338.25 148.993 338.85C149.793 339.15 150.693 339.3 151.693 339.3C154.193 339.3 156.077 338.2 157.343 336C158.643 333.767 159.293 331.017 159.293 327.75C159.293 324.717 158.727 322.233 157.593 320.3C156.46 318.333 154.71 317.35 152.343 317.35C151.377 317.35 150.543 317.5 149.843 317.8C149.177 318.1 148.31 318.583 147.243 319.25Z" fill="white"/>
<path d="M295.5 133.8C295.267 134.733 295.117 135.967 295.05 137.5C294.983 138.833 294.883 139.833 294.75 140.5C295.717 140.1 296.633 139.85 297.5 139.75C298.367 139.617 299.467 139.55 300.8 139.55C302.867 139.55 304.667 140.033 306.2 141C307.733 141.933 308.9 143.2 309.7 144.8C310.5 146.367 310.9 148.05 310.9 149.85C310.9 150.55 310.667 151.5 310.2 152.7C309.733 153.867 309.25 154.767 308.75 155.4C307.583 156.933 306.233 158.117 304.7 158.95C303.167 159.75 301.5 160.15 299.7 160.15C298.333 160.15 297.083 159.967 295.95 159.6C294.85 159.2 293.667 158.667 292.4 158C291.1 157.3 290.15 156.583 289.55 155.85C288.983 155.083 288.7 154.133 288.7 153C288.7 152.4 288.95 151.917 289.45 151.55C289.983 151.15 290.483 150.95 290.95 150.95C291.25 150.95 291.517 151.033 291.75 151.2C291.983 151.367 292.367 151.7 292.9 152.2L294.15 153.4C294.95 154.067 295.733 154.567 296.5 154.9C297.3 155.233 298.267 155.4 299.4 155.4C300.433 155.4 301.267 155.267 301.9 155C303.167 154.5 304.15 153.85 304.85 153.05C305.583 152.25 305.95 150.967 305.95 149.2C305.95 147.5 305.383 146.183 304.25 145.25C303.117 144.283 301.2 143.8 298.5 143.8C298.133 143.8 297.6 143.9 296.9 144.1C296.2 144.3 295.517 144.517 294.85 144.75C293.25 145.283 292.267 145.55 291.9 145.55C291.433 145.55 290.967 145.35 290.5 144.95C290.033 144.55 289.8 144.017 289.8 143.35C290.4 139.317 290.7 135.967 290.7 133.3L290.65 132.05C290.583 131.45 290.55 130.95 290.55 130.55C290.55 129.95 290.867 129.5 291.5 129.2C292.167 128.867 292.85 128.7 293.55 128.7C294.15 128.7 295.45 128.8 297.45 129L299.85 129.2C300.15 129.233 300.6 129.25 301.2 129.25L303.05 129.2C303.417 129.167 303.95 129.15 304.65 129.15C305.65 129.15 306.483 129.3 307.15 129.6C307.817 129.9 308.15 130.383 308.15 131.05C308.15 132.083 307.983 132.833 307.65 133.3C307.317 133.767 306.933 134 306.5 134C306.1 134 305.433 133.933 304.5 133.8C303.267 133.667 301.817 133.6 300.15 133.6C298.983 133.6 297.433 133.667 295.5 133.8ZM336.72 131.8C337.82 133.5 338.703 135.45 339.37 137.65C340.036 139.817 340.37 142.033 340.37 144.3C340.37 147 339.903 149.567 338.97 152C338.07 154.433 336.703 156.417 334.87 157.95C333.07 159.483 330.87 160.25 328.27 160.25C325.836 160.25 323.603 159.633 321.57 158.4C319.536 157.133 318.003 155.667 316.97 154C316.203 152.767 315.62 151.383 315.22 149.85C314.82 148.283 314.62 146.717 314.62 145.15C314.62 142.417 315.186 139.75 316.32 137.15C317.486 134.55 319.086 132.467 321.12 130.9C323.053 129.467 325.27 128.75 327.77 128.75C330.536 128.75 333.52 129.767 336.72 131.8ZM323.32 135.25C323.02 135.75 322.72 136.2 322.42 136.6C321.686 137.7 321.153 138.633 320.82 139.4C320.486 140.133 320.186 141.267 319.92 142.8C319.786 143.5 319.72 144.317 319.72 145.25C319.72 147.617 320.186 149.667 321.12 151.4C322.086 153.1 323.403 154.25 325.07 154.85C325.87 155.15 326.77 155.3 327.77 155.3C330.27 155.3 332.153 154.2 333.42 152C334.72 149.767 335.37 147.017 335.37 143.75C335.37 140.717 334.803 138.233 333.67 136.3C332.536 134.333 330.786 133.35 328.42 133.35C327.453 133.35 326.62 133.5 325.92 133.8C325.253 134.1 324.386 134.583 323.32 135.25Z" fill="white"/>
<path d="M599.65 121.7C599.317 128.233 599.15 133.433 599.15 137.3C599.15 139.3 599.2 141.2 599.3 143C599.567 143.2 600.083 143.3 600.85 143.3L602 143.25C602.467 143.183 602.9 143.15 603.3 143.15C604.167 143.15 604.833 143.3 605.3 143.6C605.8 143.9 606.05 144.483 606.05 145.35C606.05 146.183 605.8 146.833 605.3 147.3C604.833 147.767 603.85 148 602.35 148C601.083 148 599.55 147.9 597.75 147.7C597.317 147.667 596.9 147.633 596.5 147.6C596.1 147.567 595.733 147.55 595.4 147.55C593.567 147.583 592.2 147.65 591.3 147.75C590.4 147.85 589.383 147.9 588.25 147.9C587.217 147.9 586.7 147.117 586.7 145.55C586.7 144.05 587.667 143.3 589.6 143.3C589.9 143.3 590.383 143.333 591.05 143.4C591.617 143.5 592.217 143.55 592.85 143.55C593.217 143.55 593.517 143.533 593.75 143.5C593.783 141.267 593.9 138.017 594.1 133.75C594.3 128.75 594.4 125.05 594.4 122.65C594.233 122.683 593.65 122.917 592.65 123.35C591.117 124.117 589.983 124.5 589.25 124.5C588.85 124.5 588.483 124.3 588.15 123.9C587.817 123.467 587.65 122.967 587.65 122.4C587.65 121.833 588 121.283 588.7 120.75C589.4 120.217 590.533 119.517 592.1 118.65C592.967 118.217 593.8 117.733 594.6 117.2C594.8 117.067 595.083 116.933 595.45 116.8C595.85 116.667 596.15 116.6 596.35 116.6C597.217 116.6 598 116.783 598.7 117.15C599.433 117.483 599.8 117.933 599.8 118.5L599.65 121.7ZM631.643 119.8C632.743 121.5 633.627 123.45 634.293 125.65C634.96 127.817 635.293 130.033 635.293 132.3C635.293 135 634.827 137.567 633.893 140C632.993 142.433 631.627 144.417 629.793 145.95C627.993 147.483 625.793 148.25 623.193 148.25C620.76 148.25 618.527 147.633 616.493 146.4C614.46 145.133 612.927 143.667 611.893 142C611.127 140.767 610.543 139.383 610.143 137.85C609.743 136.283 609.543 134.717 609.543 133.15C609.543 130.417 610.11 127.75 611.243 125.15C612.41 122.55 614.01 120.467 616.043 118.9C617.977 117.467 620.193 116.75 622.693 116.75C625.46 116.75 628.443 117.767 631.643 119.8ZM618.243 123.25C617.943 123.75 617.643 124.2 617.343 124.6C616.61 125.7 616.077 126.633 615.743 127.4C615.41 128.133 615.11 129.267 614.843 130.8C614.71 131.5 614.643 132.317 614.643 133.25C614.643 135.617 615.11 137.667 616.043 139.4C617.01 141.1 618.327 142.25 619.993 142.85C620.793 143.15 621.693 143.3 622.693 143.3C625.193 143.3 627.077 142.2 628.343 140C629.643 137.767 630.293 135.017 630.293 131.75C630.293 128.717 629.727 126.233 628.593 124.3C627.46 122.333 625.71 121.35 623.343 121.35C622.377 121.35 621.543 121.5 620.843 121.8C620.177 122.1 619.31 122.583 618.243 123.25ZM662.454 119.8C663.554 121.5 664.437 123.45 665.104 125.65C665.771 127.817 666.104 130.033 666.104 132.3C666.104 135 665.637 137.567 664.704 140C663.804 142.433 662.437 144.417 660.604 145.95C658.804 147.483 656.604 148.25 654.004 148.25C651.571 148.25 649.337 147.633 647.304 146.4C645.271 145.133 643.737 143.667 642.704 142C641.937 140.767 641.354 139.383 640.954 137.85C640.554 136.283 640.354 134.717 640.354 133.15C640.354 130.417 640.921 127.75 642.054 125.15C643.221 122.55 644.821 120.467 646.854 118.9C648.787 117.467 651.004 116.75 653.504 116.75C656.271 116.75 659.254 117.767 662.454 119.8ZM649.054 123.25C648.754 123.75 648.454 124.2 648.154 124.6C647.421 125.7 646.887 126.633 646.554 127.4C646.221 128.133 645.921 129.267 645.654 130.8C645.521 131.5 645.454 132.317 645.454 133.25C645.454 135.617 645.921 137.667 646.854 139.4C647.821 141.1 649.137 142.25 650.804 142.85C651.604 143.15 652.504 143.3 653.504 143.3C656.004 143.3 657.887 142.2 659.154 140C660.454 137.767 661.104 135.017 661.104 131.75C661.104 128.717 660.537 126.233 659.404 124.3C658.271 122.333 656.521 121.35 654.154 121.35C653.187 121.35 652.354 121.5 651.654 121.8C650.987 122.1 650.121 122.583 649.054 123.25Z" fill="white"/>
<path d="M773.55 308.8C774.683 308.867 775.433 308.9 775.8 308.9C776.933 308.9 777.933 308.883 778.8 308.85C779.7 308.817 780.467 308.783 781.1 308.75C782.733 308.65 784.2 308.6 785.5 308.6C786.767 308.6 787.7 308.933 788.3 309.6C788.9 310.267 789.2 311.15 789.2 312.25C789.2 312.783 788.85 313.217 788.15 313.55C787.45 313.85 786.733 314 786 314C785.367 314 784.05 313.933 782.05 313.8C779.65 313.6 777.767 313.5 776.4 313.5C775.667 313.5 774.8 313.55 773.8 313.65C773.4 313.683 772.917 313.717 772.35 313.75C771.783 313.783 771.15 313.8 770.45 313.8C769.117 313.8 768.1 313.617 767.4 313.25C766.7 312.883 766.35 312.217 766.35 311.25C766.35 310.417 766.683 309.567 767.35 308.7C768.017 307.833 768.95 306.8 770.15 305.6L771.35 304.4C771.883 303.833 772.867 302.867 774.3 301.5C776.667 299.367 778.5 297.483 779.8 295.85C781.133 294.217 781.8 292.6 781.8 291C781.8 289.967 781.3 289.133 780.3 288.5C779.333 287.833 778.217 287.5 776.95 287.5C775.017 287.5 773.617 287.933 772.75 288.8C771.917 289.633 771.5 290.85 771.5 292.45C771.5 292.85 771.267 293.217 770.8 293.55C770.367 293.85 769.817 294 769.15 294C768.217 294 767.567 293.667 767.2 293C766.833 292.333 766.65 291.517 766.65 290.55C766.65 289.017 767.117 287.667 768.05 286.5C768.983 285.3 770.25 284.367 771.85 283.7C773.483 283.033 775.283 282.7 777.25 282.7C778.65 282.7 780.1 283.05 781.6 283.75C783.133 284.417 784.4 285.333 785.4 286.5C786.433 287.633 786.95 288.883 786.95 290.25C786.95 292.317 786.433 294.283 785.4 296.15C784.367 298.017 783.15 299.683 781.75 301.15C780.383 302.583 778.6 304.283 776.4 306.25C775.333 307.15 774.383 308 773.55 308.8ZM799.818 287.8C799.585 288.733 799.435 289.967 799.368 291.5C799.302 292.833 799.202 293.833 799.068 294.5C800.035 294.1 800.952 293.85 801.818 293.75C802.685 293.617 803.785 293.55 805.118 293.55C807.185 293.55 808.985 294.033 810.518 295C812.052 295.933 813.218 297.2 814.018 298.8C814.818 300.367 815.218 302.05 815.218 303.85C815.218 304.55 814.985 305.5 814.518 306.7C814.052 307.867 813.568 308.767 813.068 309.4C811.902 310.933 810.552 312.117 809.018 312.95C807.485 313.75 805.818 314.15 804.018 314.15C802.652 314.15 801.402 313.967 800.268 313.6C799.168 313.2 797.985 312.667 796.718 312C795.418 311.3 794.468 310.583 793.868 309.85C793.302 309.083 793.018 308.133 793.018 307C793.018 306.4 793.268 305.917 793.768 305.55C794.302 305.15 794.802 304.95 795.268 304.95C795.568 304.95 795.835 305.033 796.068 305.2C796.302 305.367 796.685 305.7 797.218 306.2L798.468 307.4C799.268 308.067 800.052 308.567 800.818 308.9C801.618 309.233 802.585 309.4 803.718 309.4C804.752 309.4 805.585 309.267 806.218 309C807.485 308.5 808.468 307.85 809.168 307.05C809.902 306.25 810.268 304.967 810.268 303.2C810.268 301.5 809.702 300.183 808.568 299.25C807.435 298.283 805.518 297.8 802.818 297.8C802.452 297.8 801.918 297.9 801.218 298.1C800.518 298.3 799.835 298.517 799.168 298.75C797.568 299.283 796.585 299.55 796.218 299.55C795.752 299.55 795.285 299.35 794.818 298.95C794.352 298.55 794.118 298.017 794.118 297.35C794.718 293.317 795.018 289.967 795.018 287.3L794.968 286.05C794.902 285.45 794.868 284.95 794.868 284.55C794.868 283.95 795.185 283.5 795.818 283.2C796.485 282.867 797.168 282.7 797.868 282.7C798.468 282.7 799.768 282.8 801.768 283L804.168 283.2C804.468 283.233 804.918 283.25 805.518 283.25L807.368 283.2C807.735 283.167 808.268 283.15 808.968 283.15C809.968 283.15 810.802 283.3 811.468 283.6C812.135 283.9 812.468 284.383 812.468 285.05C812.468 286.083 812.302 286.833 811.968 287.3C811.635 287.767 811.252 288 810.818 288C810.418 288 809.752 287.933 808.818 287.8C807.585 287.667 806.135 287.6 804.468 287.6C803.302 287.6 801.752 287.667 799.818 287.8ZM841.038 285.8C842.138 287.5 843.021 289.45 843.688 291.65C844.355 293.817 844.688 296.033 844.688 298.3C844.688 301 844.221 303.567 843.288 306C842.388 308.433 841.021 310.417 839.188 311.95C837.388 313.483 835.188 314.25 832.588 314.25C830.155 314.25 827.921 313.633 825.888 312.4C823.855 311.133 822.321 309.667 821.288 308C820.521 306.767 819.938 305.383 819.538 303.85C819.138 302.283 818.938 300.717 818.938 299.15C818.938 296.417 819.505 293.75 820.638 291.15C821.805 288.55 823.405 286.467 825.438 284.9C827.371 283.467 829.588 282.75 832.088 282.75C834.855 282.75 837.838 283.767 841.038 285.8ZM827.638 289.25C827.338 289.75 827.038 290.2 826.738 290.6C826.005 291.7 825.471 292.633 825.138 293.4C824.805 294.133 824.505 295.267 824.238 296.8C824.105 297.5 824.038 298.317 824.038 299.25C824.038 301.617 824.505 303.667 825.438 305.4C826.405 307.1 827.721 308.25 829.388 308.85C830.188 309.15 831.088 309.3 832.088 309.3C834.588 309.3 836.471 308.2 837.738 306C839.038 303.767 839.688 301.017 839.688 297.75C839.688 294.717 839.121 292.233 837.988 290.3C836.855 288.333 835.105 287.35 832.738 287.35C831.771 287.35 830.938 287.5 830.238 287.8C829.571 288.1 828.705 288.583 827.638 289.25Z" fill="white"/>
<path d="M823.5 522.8C823.267 523.733 823.117 524.967 823.05 526.5C822.983 527.833 822.883 528.833 822.75 529.5C823.717 529.1 824.633 528.85 825.5 528.75C826.367 528.617 827.467 528.55 828.8 528.55C830.867 528.55 832.667 529.033 834.2 530C835.733 530.933 836.9 532.2 837.7 533.8C838.5 535.367 838.9 537.05 838.9 538.85C838.9 539.55 838.667 540.5 838.2 541.7C837.733 542.867 837.25 543.767 836.75 544.4C835.583 545.933 834.233 547.117 832.7 547.95C831.167 548.75 829.5 549.15 827.7 549.15C826.333 549.15 825.083 548.967 823.95 548.6C822.85 548.2 821.667 547.667 820.4 547C819.1 546.3 818.15 545.583 817.55 544.85C816.983 544.083 816.7 543.133 816.7 542C816.7 541.4 816.95 540.917 817.45 540.55C817.983 540.15 818.483 539.95 818.95 539.95C819.25 539.95 819.517 540.033 819.75 540.2C819.983 540.367 820.367 540.7 820.9 541.2L822.15 542.4C822.95 543.067 823.733 543.567 824.5 543.9C825.3 544.233 826.267 544.4 827.4 544.4C828.433 544.4 829.267 544.267 829.9 544C831.167 543.5 832.15 542.85 832.85 542.05C833.583 541.25 833.95 539.967 833.95 538.2C833.95 536.5 833.383 535.183 832.25 534.25C831.117 533.283 829.2 532.8 826.5 532.8C826.133 532.8 825.6 532.9 824.9 533.1C824.2 533.3 823.517 533.517 822.85 533.75C821.25 534.283 820.267 534.55 819.9 534.55C819.433 534.55 818.967 534.35 818.5 533.95C818.033 533.55 817.8 533.017 817.8 532.35C818.4 528.317 818.7 524.967 818.7 522.3L818.65 521.05C818.583 520.45 818.55 519.95 818.55 519.55C818.55 518.95 818.867 518.5 819.5 518.2C820.167 517.867 820.85 517.7 821.55 517.7C822.15 517.7 823.45 517.8 825.45 518L827.85 518.2C828.15 518.233 828.6 518.25 829.2 518.25L831.05 518.2C831.417 518.167 831.95 518.15 832.65 518.15C833.65 518.15 834.483 518.3 835.15 518.6C835.817 518.9 836.15 519.383 836.15 520.05C836.15 521.083 835.983 521.833 835.65 522.3C835.317 522.767 834.933 523 834.5 523C834.1 523 833.433 522.933 832.5 522.8C831.267 522.667 829.817 522.6 828.15 522.6C826.983 522.6 825.433 522.667 823.5 522.8ZM864.72 520.8C865.82 522.5 866.703 524.45 867.37 526.65C868.036 528.817 868.37 531.033 868.37 533.3C868.37 536 867.903 538.567 866.97 541C866.07 543.433 864.703 545.417 862.87 546.95C861.07 548.483 858.87 549.25 856.27 549.25C853.836 549.25 851.603 548.633 849.57 547.4C847.536 546.133 846.003 544.667 844.97 543C844.203 541.767 843.62 540.383 843.22 538.85C842.82 537.283 842.62 535.717 842.62 534.15C842.62 531.417 843.186 528.75 844.32 526.15C845.486 523.55 847.086 521.467 849.12 519.9C851.053 518.467 853.27 517.75 855.77 517.75C858.536 517.75 861.52 518.767 864.72 520.8ZM851.32 524.25C851.02 524.75 850.72 525.2 850.42 525.6C849.686 526.7 849.153 527.633 848.82 528.4C848.486 529.133 848.186 530.267 847.92 531.8C847.786 532.5 847.72 533.317 847.72 534.25C847.72 536.617 848.186 538.667 849.12 540.4C850.086 542.1 851.403 543.25 853.07 543.85C853.87 544.15 854.77 544.3 855.77 544.3C858.27 544.3 860.153 543.2 861.42 541C862.72 538.767 863.37 536.017 863.37 532.75C863.37 529.717 862.803 527.233 861.67 525.3C860.536 523.333 858.786 522.35 856.42 522.35C855.453 522.35 854.62 522.5 853.92 522.8C853.253 523.1 852.386 523.583 851.32 524.25ZM895.53 520.8C896.63 522.5 897.513 524.45 898.18 526.65C898.847 528.817 899.18 531.033 899.18 533.3C899.18 536 898.713 538.567 897.78 541C896.88 543.433 895.513 545.417 893.68 546.95C891.88 548.483 889.68 549.25 887.08 549.25C884.647 549.25 882.413 548.633 880.38 547.4C878.347 546.133 876.813 544.667 875.78 543C875.013 541.767 874.43 540.383 874.03 538.85C873.63 537.283 873.43 535.717 873.43 534.15C873.43 531.417 873.997 528.75 875.13 526.15C876.297 523.55 877.897 521.467 879.93 519.9C881.863 518.467 884.08 517.75 886.58 517.75C889.347 517.75 892.33 518.767 895.53 520.8ZM882.13 524.25C881.83 524.75 881.53 525.2 881.23 525.6C880.497 526.7 879.963 527.633 879.63 528.4C879.297 529.133 878.997 530.267 878.73 531.8C878.597 532.5 878.53 533.317 878.53 534.25C878.53 536.617 878.997 538.667 879.93 540.4C880.897 542.1 882.213 543.25 883.88 543.85C884.68 544.15 885.58 544.3 886.58 544.3C889.08 544.3 890.963 543.2 892.23 541C893.53 538.767 894.18 536.017 894.18 532.75C894.18 529.717 893.613 527.233 892.48 525.3C891.347 523.333 889.597 522.35 887.23 522.35C886.263 522.35 885.43 522.5 884.73 522.8C884.063 523.1 883.197 523.583 882.13 524.25Z" fill="white"/>
<path d="M687.65 755.7C687.317 762.233 687.15 767.433 687.15 771.3C687.15 773.3 687.2 775.2 687.3 777C687.567 777.2 688.083 777.3 688.85 777.3L690 777.25C690.467 777.183 690.9 777.15 691.3 777.15C692.167 777.15 692.833 777.3 693.3 777.6C693.8 777.9 694.05 778.483 694.05 779.35C694.05 780.183 693.8 780.833 693.3 781.3C692.833 781.767 691.85 782 690.35 782C689.083 782 687.55 781.9 685.75 781.7C685.317 781.667 684.9 781.633 684.5 781.6C684.1 781.567 683.733 781.55 683.4 781.55C681.567 781.583 680.2 781.65 679.3 781.75C678.4 781.85 677.383 781.9 676.25 781.9C675.217 781.9 674.7 781.117 674.7 779.55C674.7 778.05 675.667 777.3 677.6 777.3C677.9 777.3 678.383 777.333 679.05 777.4C679.617 777.5 680.217 777.55 680.85 777.55C681.217 777.55 681.517 777.533 681.75 777.5C681.783 775.267 681.9 772.017 682.1 767.75C682.3 762.75 682.4 759.05 682.4 756.65C682.233 756.683 681.65 756.917 680.65 757.35C679.117 758.117 677.983 758.5 677.25 758.5C676.85 758.5 676.483 758.3 676.15 757.9C675.817 757.467 675.65 756.967 675.65 756.4C675.65 755.833 676 755.283 676.7 754.75C677.4 754.217 678.533 753.517 680.1 752.65C680.967 752.217 681.8 751.733 682.6 751.2C682.8 751.067 683.083 750.933 683.45 750.8C683.85 750.667 684.15 750.6 684.35 750.6C685.217 750.6 686 750.783 686.7 751.15C687.433 751.483 687.8 751.933 687.8 752.5L687.65 755.7ZM719.643 753.8C720.743 755.5 721.627 757.45 722.293 759.65C722.96 761.817 723.293 764.033 723.293 766.3C723.293 769 722.827 771.567 721.893 774C720.993 776.433 719.627 778.417 717.793 779.95C715.993 781.483 713.793 782.25 711.193 782.25C708.76 782.25 706.527 781.633 704.493 780.4C702.46 779.133 700.927 777.667 699.893 776C699.127 774.767 698.543 773.383 698.143 771.85C697.743 770.283 697.543 768.717 697.543 767.15C697.543 764.417 698.11 761.75 699.243 759.15C700.41 756.55 702.01 754.467 704.043 752.9C705.977 751.467 708.193 750.75 710.693 750.75C713.46 750.75 716.443 751.767 719.643 753.8ZM706.243 757.25C705.943 757.75 705.643 758.2 705.343 758.6C704.61 759.7 704.077 760.633 703.743 761.4C703.41 762.133 703.11 763.267 702.843 764.8C702.71 765.5 702.643 766.317 702.643 767.25C702.643 769.617 703.11 771.667 704.043 773.4C705.01 775.1 706.327 776.25 707.993 776.85C708.793 777.15 709.693 777.3 710.693 777.3C713.193 777.3 715.077 776.2 716.343 774C717.643 771.767 718.293 769.017 718.293 765.75C718.293 762.717 717.727 760.233 716.593 758.3C715.46 756.333 713.71 755.35 711.343 755.35C710.377 755.35 709.543 755.5 708.843 755.8C708.177 756.1 707.31 756.583 706.243 757.25ZM750.454 753.8C751.554 755.5 752.437 757.45 753.104 759.65C753.771 761.817 754.104 764.033 754.104 766.3C754.104 769 753.637 771.567 752.704 774C751.804 776.433 750.437 778.417 748.604 779.95C746.804 781.483 744.604 782.25 742.004 782.25C739.571 782.25 737.337 781.633 735.304 780.4C733.271 779.133 731.737 777.667 730.704 776C729.937 774.767 729.354 773.383 728.954 771.85C728.554 770.283 728.354 768.717 728.354 767.15C728.354 764.417 728.921 761.75 730.054 759.15C731.221 756.55 732.821 754.467 734.854 752.9C736.787 751.467 739.004 750.75 741.504 750.75C744.271 750.75 747.254 751.767 750.454 753.8ZM737.054 757.25C736.754 757.75 736.454 758.2 736.154 758.6C735.421 759.7 734.887 760.633 734.554 761.4C734.221 762.133 733.921 763.267 733.654 764.8C733.521 765.5 733.454 766.317 733.454 767.25C733.454 769.617 733.921 771.667 734.854 773.4C735.821 775.1 737.137 776.25 738.804 776.85C739.604 777.15 740.504 777.3 741.504 777.3C744.004 777.3 745.887 776.2 747.154 774C748.454 771.767 749.104 769.017 749.104 765.75C749.104 762.717 748.537 760.233 747.404 758.3C746.271 756.333 744.521 755.35 742.154 755.35C741.187 755.35 740.354 755.5 739.654 755.8C738.987 756.1 738.121 756.583 737.054 757.25ZM781.264 753.8C782.364 755.5 783.248 757.45 783.914 759.65C784.581 761.817 784.914 764.033 784.914 766.3C784.914 769 784.448 771.567 783.514 774C782.614 776.433 781.248 778.417 779.414 779.95C777.614 781.483 775.414 782.25 772.814 782.25C770.381 782.25 768.148 781.633 766.114 780.4C764.081 779.133 762.548 777.667 761.514 776C760.748 774.767 760.164 773.383 759.764 771.85C759.364 770.283 759.164 768.717 759.164 767.15C759.164 764.417 759.731 761.75 760.864 759.15C762.031 756.55 763.631 754.467 765.664 752.9C767.598 751.467 769.814 750.75 772.314 750.75C775.081 750.75 778.064 751.767 781.264 753.8ZM767.864 757.25C767.564 757.75 767.264 758.2 766.964 758.6C766.231 759.7 765.698 760.633 765.364 761.4C765.031 762.133 764.731 763.267 764.464 764.8C764.331 765.5 764.264 766.317 764.264 767.25C764.264 769.617 764.731 771.667 765.664 773.4C766.631 775.1 767.948 776.25 769.614 776.85C770.414 777.15 771.314 777.3 772.314 777.3C774.814 777.3 776.698 776.2 777.964 774C779.264 771.767 779.914 769.017 779.914 765.75C779.914 762.717 779.348 760.233 778.214 758.3C777.081 756.333 775.331 755.35 772.964 755.35C771.998 755.35 771.164 755.5 770.464 755.8C769.798 756.1 768.931 756.583 767.864 757.25Z" fill="white"/>
<defs>
<linearGradient id="paint0_linear_35_27" x1="-7.47367e-06" y1="612.582" x2="936.005" y2="157.937" gradientUnits="userSpaceOnUse">
<stop offset="0.154682" stop-color="white"/>
<stop offset="1" stop-color="#FFD700"/>
</linearGradient>
</defs>
</svg>
