<svg width="286" height="193" viewBox="0 0 286 193" fill="none" xmlns="http://www.w3.org/2000/svg">
<ellipse cx="143" cy="158" rx="143" ry="35" fill="white"/>
<path d="M207 158C207 166.837 178.122 174 142.5 174C106.878 174 78 166.837 78 158C78 149.163 106.878 142 142.5 142C178.122 142 207 149.163 207 158Z" fill="#D6DDFF"/>
<path d="M143 124.5C182.405 124.5 218.029 128.41 243.76 134.708C256.637 137.86 266.951 141.59 274.011 145.675C281.18 149.823 284.5 154.041 284.5 158C284.5 161.959 281.18 166.177 274.011 170.325C266.951 174.41 256.637 178.14 243.76 181.292C218.029 187.59 182.405 191.5 143 191.5C103.595 191.5 67.9707 187.59 42.2402 181.292C29.3634 178.14 19.0487 174.41 11.9893 170.325C4.82012 166.177 1.5 161.959 1.5 158C1.5 154.041 4.82012 149.823 11.9893 145.675C19.0487 141.59 29.3634 137.86 42.2402 134.708C67.9707 128.41 103.595 124.5 143 124.5Z" stroke="#667EEA" stroke-width="3"/>
<path d="M142.612 0H142.387C115.155 0 93 22.1909 93 49.4667C93 67.346 101.126 90.9422 117.154 119.601C129.036 140.848 141.085 157.121 141.206 157.283C141.541 157.734 142.07 158 142.63 158C142.646 158 142.662 158 142.678 157.999C143.256 157.983 143.789 157.687 144.11 157.204C144.229 157.024 156.192 138.923 167.994 116.783C183.923 86.8999 192 64.251 192 49.4667C191.999 22.1905 169.844 0 142.612 0ZM165.409 50.6755C165.409 63.3329 155.132 73.6298 142.499 73.6298C129.867 73.6298 119.59 63.3326 119.59 50.6755C119.59 38.0185 129.867 27.7213 142.499 27.7213C155.132 27.7213 165.409 38.0185 165.409 50.6755Z" fill="#7F95F7"/>
</svg>
